<svg xmlns="http://www.w3.org/2000/svg" viewBox="0 0 24 24"><style>:root{--favicon-color:#000000}.fg{fill:var(--favicon-color)}</style><path d="M4.30377 20.5935C3.96861 20.7633 3.64261 20.75 3.32577 20.5535C3.00894 20.357 2.85052 20.0642 2.85052 19.675V5.72501C2.85052 5.47651 2.92202 5.25492 3.06502 5.06026C3.20786 4.86576 3.39527 4.72284 3.62727 4.63151L8.15928 3.03751C8.34594 2.96684 8.53453 2.93567 8.72503 2.94401C8.91553 2.95234 9.10411 2.98351 9.29078 3.03751L15.3 5.14451L19.6963 3.38151C20.0314 3.22834 20.3584 3.24584 20.6773 3.43401C20.9961 3.62217 21.1555 3.91084 21.1555 4.30001V12.8325C21.1555 13.0812 21.0737 13.2821 20.91 13.4353C20.7465 13.5886 20.5424 13.6653 20.2978 13.6653C20.0533 13.6653 19.8502 13.5844 19.6885 13.4228C19.527 13.2613 19.4463 13.0562 19.4463 12.8075V5.22776L15.95 6.55976V10.77C15.95 10.9867 15.8792 11.1658 15.7375 11.3075C15.5959 11.4492 15.4167 11.52 15.2 11.52C14.9834 11.52 14.8042 11.4492 14.6625 11.3075C14.5209 11.1658 14.45 10.9867 14.45 10.77V6.55976L9.55003 4.90976V17.6288C9.55003 17.8941 9.47853 18.1355 9.33553 18.353C9.19269 18.5705 8.99894 18.7269 8.75428 18.8223L4.30377 20.5935ZM4.55377 18.7413L8.05003 17.4093V4.90976L4.55377 6.06676V18.7413ZM16.4518 18.6343C17.0571 18.6343 17.5675 18.4236 17.983 18.0023C18.3984 17.5808 18.604 17.0773 18.6 16.4918C18.596 15.8864 18.3884 15.377 17.977 14.9635C17.5655 14.5502 17.0571 14.3435 16.4518 14.3435C15.8463 14.3435 15.3378 14.5502 14.9263 14.9635C14.5149 15.377 14.3093 15.8864 14.3093 16.4918C14.3093 17.0973 14.5149 17.6057 14.9263 18.017C15.3378 18.4285 15.8463 18.6343 16.4518 18.6343ZM16.4518 20.3435C15.3904 20.3435 14.4832 19.9668 13.73 19.2135C12.9767 18.4603 12.6 17.5531 12.6 16.4918C12.6 15.4139 12.9767 14.5015 13.73 13.7545C14.4832 13.0077 15.3904 12.6343 16.4518 12.6343C17.5296 12.6343 18.4419 13.0077 19.1888 13.7545C19.9358 14.5015 20.3093 15.4139 20.3093 16.4918C20.3093 16.8673 20.2581 17.225 20.1558 17.565C20.0534 17.905 19.9063 18.223 19.7143 18.519L21.6983 20.5093C21.8516 20.6626 21.9293 20.8448 21.9313 21.056C21.9333 21.2672 21.8556 21.4494 21.6983 21.6028C21.5491 21.7559 21.3689 21.8325 21.1575 21.8325C20.9464 21.8325 20.7622 21.7559 20.605 21.6028L18.6268 19.6555C18.3101 19.8848 17.9726 20.0568 17.6143 20.1715C17.2559 20.2862 16.8684 20.3435 16.4518 20.3435Z" class="fg"/></svg>